<?xml version="1.0" standalone="no"?>
<!DOCTYPE svg PUBLIC "-//W3C//DTD SVG 20010904//EN"
 "http://www.w3.org/TR/2001/REC-SVG-20010904/DTD/svg10.dtd">
<svg version="1.0" xmlns="http://www.w3.org/2000/svg"
 width="345.000000pt" height="353.000000pt" viewBox="0 0 345.000000 353.000000"
 preserveAspectRatio="xMidYMid meet">

<g transform="translate(0.000000,353.000000) scale(0.100000,-0.100000)"
fill="#000000" stroke="none">
<path d="M1622 3280 c-18 -11 -42 -36 -53 -55 l-21 -35 -251 0 c-242 0 -254
-1 -292 -23 -43 -24 -85 -91 -85 -137 0 -37 40 -110 73 -134 27 -20 46 -21
292 -26 l264 -5 23 -35 c13 -19 41 -44 63 -55 22 -11 43 -24 48 -30 4 -5 6
-44 5 -85 l-3 -75 -110 -5 c-87 -4 -119 -10 -151 -27 -43 -23 -89 -70 -107
-110 -10 -23 -13 -23 -186 -23 l-176 0 -17 30 c-23 41 -79 64 -138 57 -37 -4
-51 -12 -81 -46 l-37 -41 -250 0 c-214 0 -253 -2 -266 -16 -19 -18 -21 -45 -4
-62 9 -9 82 -12 265 -12 l253 0 0 -225 0 -225 -237 0 c-252 0 -285 -6 -291
-47 -2 -11 4 -28 13 -37 14 -14 49 -16 269 -16 l252 0 22 -30 c33 -44 77 -63
131 -57 37 4 52 13 83 46 l39 41 173 0 c170 0 173 0 183 -23 37 -80 114 -128
219 -135 90 -6 116 6 112 51 l-3 32 -75 6 c-88 7 -133 27 -160 72 -19 30 -20
52 -20 317 0 416 -37 385 455 385 489 0 455 29 455 -387 0 -306 -3 -323 -71
-363 -30 -18 -56 -20 -229 -23 -115 -2 -200 -8 -207 -14 -19 -15 -16 -42 6
-62 17 -16 41 -17 223 -14 203 3 203 3 252 32 31 18 59 46 79 77 l30 50 116
-3 116 -3 3 -212 2 -213 -34 -14 c-47 -19 -56 -42 -56 -131 0 -148 -8 -145
416 -145 l336 0 34 34 c33 33 34 37 34 111 0 71 -2 79 -29 106 -16 16 -37 29
-45 29 -13 0 -16 13 -16 73 0 78 -16 117 -50 117 -38 0 -50 -27 -50 -111 l0
-79 -222 2 -223 3 -5 230 c-3 127 -9 238 -14 248 -11 23 -61 49 -100 52 -17 2
-70 3 -119 4 l-87 1 2 223 3 222 235 0 c220 -1 239 -2 292 -24 77 -30 161
-108 201 -185 31 -61 32 -62 37 -246 3 -102 9 -191 13 -197 13 -20 65 -16 77
6 13 25 13 256 0 341 -30 189 -182 350 -368 389 -29 6 -153 11 -277 11 l-225
0 -19 38 c-45 88 -115 121 -258 122 l-103 0 0 84 0 84 48 23 c28 15 57 39 71
62 l24 37 250 0 c211 0 254 3 284 17 48 23 85 80 85 135 0 70 -23 111 -82 147
-33 20 -48 21 -290 21 l-255 0 -16 32 c-8 17 -28 41 -43 52 -25 19 -43 21
-224 24 -184 2 -199 1 -230 -18z m399 -80 c18 -10 19 -23 19 -170 0 -147 -1
-160 -19 -170 -11 -6 -90 -10 -185 -10 -208 0 -196 -11 -196 182 0 187 -10
178 201 178 91 0 169 -4 180 -10z m-471 -170 l0 -70 -243 0 c-203 0 -246 3
-265 16 -29 20 -30 76 -2 104 19 19 33 20 265 20 l245 0 0 -70z m1094 49 c33
-26 35 -70 4 -99 -21 -19 -34 -20 -265 -20 l-243 0 0 70 0 70 239 0 c226 0
240 -1 265 -21z m-734 -409 l0 -90 -65 0 -65 0 0 90 0 90 65 0 65 0 0 -90z
m-1056 -266 c14 -13 16 -55 16 -303 0 -272 -1 -289 -19 -305 -24 -22 -59 -13
-71 17 -4 12 -9 144 -9 292 -1 231 1 273 14 293 19 26 47 29 69 6z m437 -289
c0 -115 -1 -216 -1 -222 0 -10 -40 -13 -165 -13 l-165 0 0 218 c0 120 3 222 7
226 4 3 79 5 166 4 l160 -3 -2 -210z m1969 -910 l0 -45 -320 0 -320 0 0 45 0
45 320 0 320 0 0 -45z"/>
<path d="M2863 868 c-85 -81 -179 -204 -224 -293 -39 -76 -41 -83 -37 -155 8
-128 80 -234 197 -289 76 -35 201 -37 274 -2 97 45 167 130 193 232 20 78 13
129 -31 216 -66 130 -248 343 -293 343 -14 0 -45 -21 -79 -52z m165 -153 c103
-124 152 -215 152 -284 0 -177 -199 -293 -357 -207 -95 52 -151 168 -124 258
7 24 37 79 66 123 52 80 159 205 175 205 5 0 45 -43 88 -95z"/>
</g>
</svg>
