<?xml version="1.0" standalone="no"?>
<!DOCTYPE svg PUBLIC "-//W3C//DTD SVG 20010904//EN"
 "http://www.w3.org/TR/2001/REC-SVG-20010904/DTD/svg10.dtd">
<svg version="1.0" xmlns="http://www.w3.org/2000/svg"
 width="690.000000pt" height="318.000000pt" viewBox="0 0 690.000000 318.000000"
 preserveAspectRatio="xMidYMid meet">

<g transform="translate(0.000000,318.000000) scale(0.100000,-0.100000)"
fill="#000000" stroke="none">
<path d="M3203 2989 c-85 -21 -109 -33 -233 -114 -52 -35 -108 -69 -125 -78
-26 -13 -198 -16 -1320 -22 -1432 -8 -1331 -3 -1402 -73 l-31 -31 -3 -278 c-5
-388 0 -1963 6 -1990 6 -26 17 -27 405 -49 207 -11 390 -14 670 -10 429 5 487
9 492 34 2 10 12 -7 23 -35 26 -73 92 -145 165 -182 80 -39 149 -47 231 -27
107 28 180 88 230 191 16 33 29 54 29 48 0 -10 337 -13 1653 -13 l1652 -1 24
-50 c62 -127 222 -208 357 -180 86 17 137 46 199 112 41 46 57 70 62 102 6 36
8 38 13 17 l5 -26 165 17 c91 10 190 23 220 29 184 41 204 131 122 532 -44
218 -46 221 -161 269 -448 184 -528 233 -831 505 -69 62 -195 179 -280 262
l-155 150 308 -3 307 -3 30 36 c32 38 70 143 70 191 0 46 -28 126 -60 169 -90
124 -346 253 -880 442 -96 35 -195 64 -220 66 -25 2 -409 5 -855 7 -748 3
-815 2 -882 -14z m1709 -44 c48 -4 118 -23 240 -66 521 -183 780 -314 853
-429 50 -80 52 -168 5 -260 l-20 -38 -72 -4 c-83 -5 -224 -4 -809 7 l-416 8
-7 -252 c-4 -139 -4 -533 0 -877 l7 -624 -1172 0 -1171 0 0 53 c0 29 -11 83
-25 122 -20 58 -34 79 -82 124 -82 75 -128 94 -233 95 -71 0 -94 -4 -140 -25
-30 -14 -70 -38 -88 -54 -73 -61 -122 -169 -122 -265 l0 -47 -97 -7 c-264 -17
-735 -18 -1038 -2 -171 9 -326 19 -346 22 l-36 5 -6 512 c-7 526 -1 1639 10
1691 7 36 36 63 83 75 20 5 583 12 1315 16 1258 7 1280 7 1320 27 22 11 85 50
140 86 162 107 157 105 470 112 290 7 1326 3 1437 -5z m331 -842 l68 -6 167
-160 c240 -229 382 -359 491 -446 53 -42 104 -83 114 -91 63 -53 315 -178 494
-244 101 -38 140 -70 158 -131 23 -79 65 -312 71 -400 9 -107 -8 -148 -70
-176 -47 -20 -190 -44 -341 -55 l-90 -6 0 78 c-1 64 -6 90 -27 136 -31 67 -92
129 -163 166 -44 23 -62 27 -140 26 -106 0 -153 -18 -228 -84 -69 -61 -109
-144 -110 -232 l-1 -68 -448 0 -448 0 0 850 0 850 218 0 c119 0 248 -3 285 -7z
m-3147 -1422 c125 -57 177 -207 115 -329 -86 -168 -344 -160 -422 12 -23 51
-25 143 -3 194 47 114 198 174 310 123z m3969 0 c58 -26 121 -101 135 -160 36
-150 -76 -291 -229 -291 -137 1 -231 98 -231 237 0 99 44 166 135 209 61 29
134 31 190 5z"/>
<path d="M2668 2057 c-54 -46 -52 -19 -56 -772 -2 -384 -1 -736 3 -782 l7 -83
409 0 409 0 0 793 c-1 734 -2 793 -18 812 -47 56 -40 55 -397 55 -327 0 -330
0 -357 -23z m713 -45 l29 -32 -2 -763 -3 -762 -375 0 -375 0 0 768 0 769 33
29 33 30 316 -3 315 -3 29 -33z"/>
<path d="M4871 1992 l-33 -27 4 -307 3 -306 25 -27 c14 -15 42 -36 62 -46 34
-17 62 -19 353 -19 270 0 321 2 347 16 25 13 35 14 57 4 36 -17 249 -24 267
-9 8 6 14 29 14 53 0 39 -5 46 -141 182 -85 85 -147 140 -155 137 -8 -3 -14
-20 -14 -39 0 -19 -4 -34 -10 -34 -5 0 -10 22 -10 48 0 42 -7 58 -52 122 -71
100 -141 167 -232 219 l-76 43 -182 5 c-100 2 -184 6 -188 8 -4 2 -21 -8 -39
-23z m369 -21 c104 -16 249 -128 332 -255 32 -50 38 -67 38 -114 0 -43 -5 -60
-25 -84 -23 -27 -25 -38 -25 -129 l0 -99 -298 0 -299 0 -40 29 c-51 37 -53 49
-53 382 0 195 3 260 13 266 14 9 250 22 287 16 14 -2 45 -8 70 -12z m592 -516
c83 -85 107 -116 108 -137 l0 -28 -100 0 c-54 0 -111 5 -125 12 l-25 11 0 140
c0 164 -16 163 142 2z"/>
<path d="M4912 1191 c-19 -12 -11 -45 12 -49 10 -2 47 -1 82 3 67 7 83 24 45
45 -24 12 -121 13 -139 1z"/>
<path d="M1934 645 c-7 -18 31 -81 56 -95 22 -12 52 10 74 54 22 43 6 56 -66
56 -42 0 -60 -4 -64 -15z"/>
<path d="M1819 514 c-13 -35 -11 -87 4 -107 11 -16 14 -16 46 0 19 10 41 28
49 40 13 21 12 25 -17 52 -44 41 -70 46 -82 15z"/>
<path d="M2111 505 c-17 -15 -31 -33 -31 -41 0 -33 73 -81 99 -65 8 5 11 28 9
67 -3 51 -6 59 -24 62 -12 2 -35 -9 -53 -23z"/>
<path d="M1976 491 c-21 -23 -18 -49 7 -65 36 -23 75 35 47 70 -17 19 -34 18
-54 -5z"/>
<path d="M1961 354 c-27 -34 -35 -64 -23 -76 13 -13 112 -12 125 1 22 22 -33
101 -69 101 -7 0 -22 -12 -33 -26z"/>
<path d="M5911 651 c-27 -17 24 -101 61 -101 36 0 81 71 63 99 -7 13 -104 14
-124 2z"/>
<path d="M6100 518 c-65 -44 -65 -74 -1 -112 47 -27 61 -16 61 48 0 56 -7 86
-20 86 -4 0 -22 -10 -40 -22z"/>
<path d="M5784 504 c-7 -26 0 -101 10 -111 9 -9 78 32 94 55 13 20 12 24 -18
52 -41 38 -77 40 -86 4z"/>
<path d="M5946 494 c-22 -22 -20 -51 5 -64 25 -14 44 -8 59 19 8 17 7 24 -10
41 -24 24 -34 25 -54 4z"/>
<path d="M5932 355 c-29 -37 -37 -66 -21 -76 8 -5 39 -8 69 -7 65 3 72 17 38
69 -30 43 -59 48 -86 14z"/>
</g>
</svg>
