<?xml version="1.0" encoding="utf-8"?>
<!DOCTYPE svg PUBLIC "-//W3C//DTD SVG 1.1//EN" "http://www.w3.org/Graphics/SVG/1.1/DTD/svg11.dtd">
<svg version="1.1" xmlns="http://www.w3.org/2000/svg" xmlns:xlink="http://www.w3.org/1999/xlink" x="0px" y="0px" viewBox="0 0 1000 1000" enable-background="new 0 0 1000 1000" xml:space="preserve">
<g><g transform="translate(0.000000,511.000000) scale(0.100000,-0.100000)"><path d="M7068.1,2778.1c-378.1-49.1-780.7-141-1334.6-306.6c-173.7-53.1-390.4-112.4-480.3-132.8c-255.5-61.3-795-128.8-1042.3-128.8c-210.5-2.1-235,2-376.1,63.3c-157.4,69.5-296.3,83.8-400.6,45c-30.7-12.3-120.6-67.4-200.3-124.7c-81.7-55.2-394.5-253.4-699-439.4c-302.5-186-619.3-392.4-705.1-459.8c-83.8-65.4-314.7-216.6-510.9-335.2C996,767,938.8,724.1,740.6,523.8C521.9,303.1,519.8,301,515.8,200.9c-2-92-14.3-118.5-181.9-337.2C68.2-491.9,49.8-547.1,174.4-612.5c175.8-92,224.8-112.4,306.6-124.7c112.4-16.3,318.8,30.7,439.4,102.2c57.2,32.7,167.6,61.3,347.4,89.9c147.2,24.5,312.7,53.2,367.9,63.4c57.2,10.2,139,24.5,183.9,30.7c145.1,22.5,445.5,124.7,619.3,212.5c169.6,85.8,206.4,89.9,353.6,51.1c20.4-6.1,55.2-73.6,89.9-177.8c55.2-159.4,57.2-192.1,67.4-627.5c8.2-402.6-12.3-803.2-49.1-1003.5c-6.1-34.7-53.1-83.8-139-147.1l-130.8-96.1h-198.3c-108.3,0-216.6-10.2-241.2-22.5c-63.4-32.7-177.8-145.1-177.8-173.7c0-30.7,124.7-89.9,188-89.9c26.6,0,67.4-14.3,89.9-30.7c32.7-24.5,139-28.6,600.9-30.7c308.6,0,574.3,8.2,590.7,18.4c18.4,12.3,24.5,36.8,14.3,73.6c-20.4,77.7,16.3,155.3,98.1,208.5c38.8,24.5,155.3,116.5,257.5,202.3c249.3,210.5,275.9,265.7,259.6,549.8c-12.3,198.3-10.2,212.5,77.7,527.3c128.8,449.6,165.6,537.5,243.2,596.8c96.1,73.6,175.8,63.3,400.6-47c155.3-77.7,200.3-110.4,235-171.7c22.5-40.9,100.1-147.2,171.7-235c143.1-175.8,194.2-273.9,224.8-447.6c45-235,159.4-394.5,374-506.9c196.2-106.3,275.9-183.9,290.2-286.1c12.2-75.6,6.1-102.2-36.8-163.5c-53.1-77.7-85.8-190.1-65.4-212.5c24.5-22.5,369.9-12.3,459.9,14.3c49,14.3,118.5,53.1,151.2,85.8l61.3,61.3l-10.2,447.6c-10.2,492.5-14.3,513-141,539.6c-83.8,16.4-94,59.3-40.9,204.4c40.9,110.4,59.3,265.7,83.8,672.4c0,32.7,194.2,134.9,275.9,149.2c83.8,12.3,100.2,4.1,308.6-132.9c120.6-79.7,398.5-235,617.2-343.3c284.1-141,427.2-224.8,502.8-292.3l104.2-98.1l6.1-165.6l8.2-165.5l-134.9-130.8c-124.7-118.5-134.9-134.9-134.9-212.5c0-73.6,6.1-85.8,42.9-85.8c22.5,0,61.3-10.2,83.8-22.5c57.2-30.7,239.1,26.6,304.5,96.1c26.6,28.6,69.5,49.1,102.2,49.1c30.7,0,104.2,32.7,163.5,71.5c59.3,40.9,118.6,69.5,134.9,63.3c30.7-12.2,34.8-128.8,8.2-200.3c-14.3-40.9-40.9-51.1-173.7-71.5c-198.2-32.7-263.6-67.4-329-175.8c-67.4-118.5-67.4-173.7,6.1-190.1c30.7-6.1,67.4-16.3,83.8-20.4c16.3-6.1,65.4,4.1,112.4,20.4c151.2,51.1,275.9,73.6,412.8,73.6h134.9l143.1,139c173.7,165.5,459.9,519.1,502.8,617.2c18.4,45,24.5,110.4,20.4,181.9c-10.2,108.3-12.3,112.4-204.4,296.3c-226.8,214.6-208.5,161.5-233,717.4c-14.3,345.4,6.1,543.6,87.9,846.1c45,167.6,53.1,239.1,55.2,492.6c2,282-2.1,306.6-67.5,500.7c-79.7,239.1-200.3,492.5-290.2,605c-114.5,145.1-570.2,412.9-911.5,535.5c-235,85.8-449.6,116.5-770.5,114.4C7407.4,2804.7,7182.6,2792.4,7068.1,2778.1z"/></g></g>
</svg>